<svg width="232" height="73" viewBox="0 0 232 73" xmlns="http://www.w3.org/2000/svg">
    <defs>
        <clipPath id="f9js5qklya">
            <path d="M1770 0v2599H0V0h1770z"/>
        </clipPath>
        <clipPath id="y44ygzvufb">
            <path d="M137.636 66.781c1.243 0 1.933.876 1.933 2.211 0 1.451-.76 2.327-1.91 2.327-.254 0-.53-.046-.69-.116V73h-.715v-5.92c.3-.16.737-.299 1.382-.299zm58.194 0c1.243 0 1.933.876 1.933 2.211.024 1.451-.736 2.327-1.91 2.327-.253 0-.53-.046-.69-.116V73h-.714v-5.92c.299-.16.736-.299 1.38-.299zm-107.41 0c1.242 0 1.933.876 1.933 2.211 0 1.451-.76 2.327-1.91 2.327-.254 0-.53-.046-.691-.116V73h-.714v-5.92c.3-.16.737-.299 1.381-.299zm16.942 0c1.197 0 1.726.968 1.726 2.28.023 1.29-.506 2.28-1.703 2.28s-1.727-.99-1.727-2.28c0-1.312.53-2.28 1.704-2.28zm17.104 0c1.197 0 1.726.968 1.726 2.28.023 1.29-.506 2.28-1.703 2.28s-1.727-.99-1.727-2.28c0-1.312.53-2.28 1.704-2.28zm85.288-.023c1.059 0 1.68.691 1.68 2.165l-2.762.392c.092.99.553 1.497 1.335 1.497.507 0 .852-.115 1.082-.253l.184.483c-.276.161-.736.3-1.335.3-1.15 0-1.956-.737-1.956-2.304 0-1.497.736-2.28 1.772-2.28zm-147.143.023c.806 0 1.543.346 1.543 1.428v2.833c-.369.161-.875.3-1.497.3-1.15 0-1.68-.507-1.68-1.29 0-1.175 1.105-1.52 2.463-1.658v-.277c0-.668-.414-.875-.967-.875-.414 0-.806.161-1.059.276l-.16-.414a2.911 2.911 0 0 1 1.357-.323zm-11.924-.023c1.059 0 1.68.691 1.68 2.165l-2.762.392c.092.99.553 1.497 1.335 1.497.507 0 .852-.115 1.082-.253l.184.483c-.276.161-.736.3-1.335.3-1.15 0-1.957-.737-1.957-2.304 0-1.497.737-2.28 1.773-2.28zm142.77.023c1.196 0 1.726.968 1.726 2.28 0 1.29-.507 2.28-1.704 2.28s-1.726-.99-1.726-2.28c0-1.312.529-2.28 1.703-2.28zm-96.155 0c.806 0 1.542.346 1.542 1.428v2.833c-.368.161-.874.3-1.496.3-1.15 0-1.68-.507-1.68-1.29 0-1.175 1.105-1.52 2.463-1.658v-.277c0-.668-.414-.875-.967-.875-.414 0-.806.161-1.059.276l-.161-.414a2.911 2.911 0 0 1 1.358-.323zm89.386-.023c1.06 0 1.68.691 1.68 2.165l-2.762.392c.092.99.553 1.497 1.335 1.497.507 0 .852-.115 1.082-.253l.185.483c-.277.161-.737.3-1.336.3-1.15 0-1.956-.737-1.956-2.304 0-1.497.736-2.28 1.772-2.28zm-114.477.023c1.197 0 1.726.968 1.726 2.28.023 1.29-.506 2.28-1.703 2.28s-1.727-.99-1.727-2.28c0-1.312.53-2.28 1.704-2.28zm105.845-.023c1.059 0 1.68.691 1.68 2.165l-2.762.392c.092.99.552 1.497 1.335 1.497.506 0 .852-.115 1.082-.253l.184.483c-.276.161-.737.3-1.335.3-1.151 0-1.957-.737-1.957-2.304 0-1.497.737-2.28 1.773-2.28zm-144.15 0c1.058 0 1.68.691 1.68 2.165l-2.762.392c.092.99.552 1.497 1.335 1.497.506 0 .851-.115 1.082-.253l.184.483c-.276.161-.737.3-1.335.3-1.151 0-1.957-.737-1.957-2.304 0-1.497.737-2.28 1.773-2.28zm141.111-1.911v6.172c-.3.184-.76.323-1.381.323-1.266 0-1.934-.876-1.934-2.211 0-1.451.783-2.304 1.91-2.304.254 0 .461.023.692.093v-2.073h.713zm-30.64 1.934c1.198 0 1.727.968 1.727 2.28 0 1.29-.506 2.28-1.703 2.28s-1.727-.99-1.727-2.28c0-1.312.53-2.28 1.704-2.28zm23.527-1.934v6.172c-.3.184-.783.323-1.381.323-1.266 0-1.934-.876-1.934-2.211 0-1.451.783-2.304 1.91-2.304.254 0 .461.023.691.093v-2.073h.714zM79.28 66.78c.806 0 1.543.346 1.543 1.428v2.833c-.369.161-.898.3-1.497.3-1.15 0-1.68-.507-1.68-1.29 0-1.175 1.105-1.52 2.463-1.658v-.277c0-.668-.414-.875-.967-.875-.414 0-.805.161-1.059.276l-.16-.414a2.911 2.911 0 0 1 1.357-.323zm75.874 0c.805 0 1.542.346 1.542 1.428v2.833c-.368.161-.875.3-1.496.3-1.151 0-1.68-.507-1.68-1.29 0-1.175 1.104-1.52 2.462-1.658v-.277c0-.668-.414-.875-.966-.875-.415 0-.806.161-1.06.276l-.16-.414a2.911 2.911 0 0 1 1.358-.323zm-21.363-.046c.46 0 .806.138 1.036.3l-.16.46c-.139-.092-.392-.253-.738-.253-.483 0-.736.322-.736.69 0 .416.3.623.736.784.852.322 1.06.783 1.06 1.29.022.69-.576 1.313-1.474 1.313-.483 0-.898-.116-1.128-.3l.207-.483c.161.138.46.253.852.253.483 0 .806-.346.806-.76 0-.46-.253-.668-.737-.852-.852-.323-1.036-.783-1.036-1.244 0-.645.507-1.198 1.312-1.198zm15.447-1.105v1.243h.76v.438h-.76v2.856c0 .346.16.645.552.645.07 0 .138-.023.207-.023v.46c-.046 0-.184.047-.368.047-.806 0-1.105-.576-1.105-1.106v-2.879h-.506v-.438h.506V65.86l.714-.23zm10.497 1.174c1.22 0 1.588.668 1.588 1.313v3.179h-.737v-3.202c0-.414-.16-.852-.92-.852-.415 0-.599.046-.83.161v3.87h-.713v-4.17c.392-.183.898-.299 1.612-.299zm56.56-1.174v1.243h.76v.438h-.76v2.856c0 .346.16.645.552.645.069 0 .138-.023.207-.023v.46c-.069 0-.184.047-.368.047-.806 0-1.105-.576-1.105-1.106v-2.879h-.507v-.438h.507V65.86l.713-.23zm-175.02 1.174c1.22 0 1.588.668 1.588 1.313v3.179h-.737v-3.202c0-.414-.16-.852-.92-.852-.415 0-.599.046-.83.161v3.87h-.713v-4.17c.392-.183.898-.299 1.612-.299zm23.204-1.174v1.243h.76v.438h-.76v2.856c0 .346.16.645.552.645.07 0 .138-.023.207-.023v.46c-.069 0-.184.047-.368.047-.806 0-1.105-.576-1.105-1.106v-2.879h-.506v-.438h.506V65.86l.714-.23zm-19.245 0v1.243h.76v.438h-.76v2.856c0 .346.161.645.552.645.07 0 .139-.023.208-.023v.46c-.07 0-.185.047-.369.047-.805 0-1.105-.576-1.105-1.106v-2.879h-.506v-.438h.506V65.86l.714-.23zm10.957 1.174c1.22 0 1.589.668 1.589 1.313v3.179h-.737v-3.202c0-.414-.161-.852-.92-.852-.415 0-.6.046-.83.161v3.87h-.713v-4.17c.391-.183.898-.299 1.611-.299zm70.925 0c1.22 0 1.588.668 1.588 1.313v3.179h-.737v-3.202c0-.414-.16-.852-.92-.852-.415 0-.599.046-.83.161v3.87h-.713v-4.17c.392-.183.898-.299 1.612-.299zM99.169 65.63v1.243h.76v.438h-.76v2.856c0 .346.162.645.553.645.069 0 .138-.023.207-.023v.46c-.069 0-.207.047-.368.047-.806 0-1.105-.576-1.105-1.106v-2.879h-.507v-.438h.507V65.86l.713-.23zm113.166 1.174c1.22 0 1.588.668 1.588 1.313v3.179h-.736v-3.202c0-.414-.161-.852-.921-.852-.414 0-.599.046-.829.161v3.87h-.713v-4.17c.391-.183.897-.299 1.611-.299zm-137.474 0c1.22 0 1.588.668 1.588 1.313v3.179h-.737v-3.202c0-.414-.16-.852-.92-.852-.415 0-.599.046-.83.161v3.87h-.713v-4.17c.391-.183.898-.299 1.612-.299zm35.404 0-.161.53c-.368-.115-.76-.069-1.013.092v3.847h-.714v-4.17c.438-.23.852-.345 1.888-.299zm-56.72 0-.162.53c-.368-.115-.76-.069-1.013.092v3.847h-.713v-4.17c.437-.23.851-.345 1.887-.299zm93.713 0-.161.53c-.369-.115-.76-.069-1.013.092v3.847h-.714v-4.17c.438-.23.852-.345 1.888-.299zM26.404 64.87v2.234c.368-.184.69-.277 1.013-.277 1.128 0 1.45.668 1.45 1.29v3.156h-.714V68.14c0-.46-.207-.875-.898-.875-.322 0-.598.046-.851.23v3.778h-.714V64.87h.714zm76.449-.023v.46c-.438.023-.76.23-.76.852v.714h.76v.438h-.783v3.939h-.714v-3.962h-.506v-.438h.506v-.621c0-.876.53-1.428 1.497-1.382zm85.564 0v6.403h-.713v-6.403h.713zm-96.015 0v6.403h-.714v-6.403h.714zM38.406 66.85v4.4h-.938v-4.4h.938zm29.028 0v4.4h-.938v-4.4h.938zm15.553-2.003v6.403h-.714v-6.403h.714zm96.338 2.003.92 3.156c.092.3.115.53.115.53h.024s.023-.23.115-.53l.943-3.156h.668l-1.427 4.4h-.645l-1.473-4.4h.76zM24.562 65.63v.506h-1.105v5.114h-.76v-5.114H21.57v-.506h2.992zm90.998 1.128c1.059 0 1.427.691 1.427 1.29v3.179h-.737V68.07c0-.437-.207-.852-.852-.852-.368 0-.644.115-.897.391v3.617h-.714v-3.202c0-.484-.322-.806-.967-.806-.368 0-.552.046-.782.138v3.87h-.714v-4.17c.391-.207.829-.299 1.52-.299.667 0 1.081.208 1.357.53.3-.322.76-.53 1.359-.53zm87.751 0c1.06 0 1.428.691 1.428 1.29v3.179h-.737V68.07c0-.437-.207-.852-.852-.852-.368 0-.644.115-.898.391v3.617h-.713v-3.202c0-.484-.323-.806-.967-.806-.368 0-.553.046-.783.138v3.87h-.713v-4.17c.391-.207.828-.299 1.519-.299.668 0 1.082.208 1.358.53.3-.322.76-.53 1.358-.53zM80.11 68.762c-1.105.138-1.772.369-1.772 1.267 0 .645.39.898 1.035.898.277 0 .553-.046.737-.138v-2.027zm75.873 0c-1.104.138-1.772.369-1.772 1.267 0 .645.391.898 1.036.898.276 0 .552-.046.736-.138v-2.027zm-59.851 0c-1.105.138-1.773.369-1.773 1.267 0 .645.392.898 1.036.898.276 0 .553-.046.737-.138v-2.027zm-34.691 0c-1.105.138-1.773.369-1.773 1.267 0 .645.392.898 1.036.898.277 0 .553-.046.737-.138v-2.027zm110.311-1.543c-1.013 0-1.358.875-1.358 1.843 0 1.036.368 1.796 1.266 1.796.3 0 .506-.023.645-.115V67.31c-.185-.046-.369-.092-.553-.092zm-83.378-.023c-.276 0-.46.046-.621.115v3.455c.138.046.322.092.53.092.897 0 1.357-.691 1.357-1.866 0-1.105-.322-1.796-1.266-1.796zm49.217 0c-.277 0-.46.046-.622.115v3.455c.138.046.322.092.53.092.897 0 1.358-.691 1.358-1.866 0-1.105-.323-1.796-1.266-1.796zm58.217 0c-.276 0-.46.046-.622.115v3.455c.138.046.323.092.53.092.898 0 1.358-.691 1.358-1.866 0-1.105-.345-1.796-1.266-1.796zm-31.17.023c-1.012 0-1.357.875-1.357 1.843 0 1.036.368 1.796 1.266 1.796.3 0 .506-.023.644-.115V67.31c-.184-.046-.368-.092-.552-.092zm-94.403 0c-.852 0-1.013.944-1.013 1.82 0 .898.184 1.773 1.013 1.773.851 0 .99-.898.99-1.774 0-.875-.139-1.82-.99-1.82zm72.167 0c-.852 0-1.013.944-1.013 1.82 0 .898.184 1.773 1.013 1.773.851 0 .99-.898.99-1.774 0-.875-.162-1.82-.99-1.82zm-19.912 0c-.852 0-1.013.944-1.013 1.82 0 .898.184 1.773 1.013 1.773.851 0 .99-.898.99-1.774 0-.875-.139-1.82-.99-1.82zm-17.104 0c-.852 0-1.013.944-1.013 1.82 0 .898.184 1.773 1.013 1.773.852 0 .99-.898.99-1.774 0-.875-.138-1.82-.99-1.82zm86.094 0c-.852 0-1.013.944-1.013 1.82 0 .898.184 1.773 1.013 1.773.852 0 .99-.898.99-1.774 0-.875-.161-1.82-.99-1.82zm-142.792.023c-.645 0-1.105.507-1.105 1.704l2.118-.322c0-.99-.391-1.382-1.013-1.382zm-16.781 0c-.645 0-1.105.507-1.105 1.704l2.117-.322c0-.99-.391-1.382-1.012-1.382zm175.848 0c-.644 0-1.105.507-1.105 1.704l2.118-.322c0-.99-.391-1.382-1.013-1.382zm-31.721 0c-.645 0-1.105.507-1.105 1.704l2.118-.322c0-.99-.369-1.382-1.013-1.382zm8.655 0c-.644 0-1.105.507-1.105 1.704l2.118-.322c0-.99-.391-1.382-1.013-1.382zM37.952 65.215c.302 0 .544.184.544.392 0 .207-.242.391-.544.391-.303 0-.545-.184-.545-.391 0-.23.242-.392.545-.392zm29.028 0c.302 0 .544.184.544.392 0 .207-.242.391-.544.391-.303 0-.545-.184-.545-.391 0-.23.242-.392.545-.392zm-47.068-28.03c4.926 0 7.896 3.178 7.896 8.568 0 5.505-3.016 8.867-7.435 8.867-.967 0-1.98-.115-2.533-.345v6.863h-3.798V38.406c1.29-.691 3.177-1.221 5.87-1.221zm17.748 0c4.766 0 7.022 3.731 7.022 8.775 0 4.998-2.302 8.752-7.022 8.752-4.742 0-7.02-3.754-7.02-8.752 0-5.044 2.278-8.775 7.02-8.775zm36.924 0c2.832 0 5.525 1.22 5.525 5.136v11.194c-1.266.737-3.062 1.197-5.156 1.197-4.144 0-5.916-1.98-5.916-4.836 0-4.515 4.143-5.897 9.438-6.426v-1.152c0-3.04-1.796-3.892-4.098-3.892-1.634 0-3.038.599-3.913 1.105l-.46-1.105c.874-.507 2.624-1.221 4.58-1.221zm65.584-.023c4.489 0 6.929 2.971 6.768 8.66l-10.336 1.52c.322 3.133 1.818 4.699 4.604 4.699 1.933 0 3.36-.46 4.258-.945l.898 2.419c-1.197.668-3.015 1.197-5.57 1.197-4.789 0-7.827-3.109-7.827-8.82 0-5.529 2.785-8.73 7.205-8.73zm-10.681-7.393v23.723c-1.336.76-3.246 1.22-5.87 1.22-4.996 0-7.873-3.201-7.873-8.567 0-5.528 3.015-8.822 7.39-8.822.943 0 1.795.092 2.531.323v-7.877h3.822zm-17.588.023V53.56c-.897.622-2.624 1.151-4.673 1.151-4.696 0-6.998-3.616-6.998-8.406 0-5.712 2.924-8.937 7.298-8.937.874 0 1.726.115 2.716.415v-7.992h1.657zM5.801 37.185c1.888 0 3.292.46 4.397 1.198l-.944 2.234a4.422 4.422 0 0 0-2.693-.945c-1.566 0-2.417 1.037-2.417 2.235 0 1.382 1.035 2.072 2.509 2.671 3.292 1.313 4.051 3.018 4.051 4.998-.023 2.718-2.325 5.113-6.031 5.113-1.98 0-3.66-.53-4.673-1.22l1.013-2.442c.621.507 1.795.968 3.177.968 1.565 0 2.6-1.014 2.6-2.396 0-1.45-.759-2.142-2.485-2.787-3.2-1.22-3.868-2.97-3.868-4.744 0-2.695 2.141-4.883 5.364-4.883zm57.757-4.468v4.79h2.762v2.442h-2.762v9.88c0 1.313.53 2.189 1.841 2.189.346 0 .599-.07.898-.162v2.373c-.3.161-.99.368-1.91.368-3.315 0-4.65-2.234-4.65-4.583V39.949h-1.888v-2.442h1.887v-3.73l3.822-1.06zm-7.297 4.468-.737 2.81c-1.29-.438-2.693-.369-3.568.115v14.28H48.11V38.383c1.75-.853 3.89-1.313 8.15-1.198zm96.453.3 2.97 10.917c.345 1.22.414 2.326.414 2.326h.069s.092-1.06.437-2.326l3.039-10.918h3.568L157.8 54.39h-3.637l-5.525-16.906h4.075zm-62.108-.323c4.35 0 5.479 2.764 5.479 4.837V54.39h-1.68v-12.3c0-1.75-.691-3.753-4.052-3.753-1.888 0-2.716.253-3.752.69V54.39h-1.704V38.36c1.404-.76 3.177-1.198 5.71-1.198zm-12.131 7.301c-4.95.668-7.781 1.635-7.781 5.436 0 2.695 1.703 3.8 4.489 3.8 1.22 0 2.486-.253 3.292-.69v-8.546zm29.304-6.057c-4.512 0-5.87 3.892-5.87 7.692 0 4.146 1.496 7.44 5.456 7.44 1.358 0 2.256-.115 2.877-.576v-14.21h.023a8.881 8.881 0 0 0-2.486-.346zm-87.959 1.06c-.852 0-1.45.114-1.98.345v12.23c.438.184 1.013.276 1.704.276 3.015 0 4.489-2.35 4.489-6.472-.023-4.03-1.105-6.38-4.213-6.38zm104.165.022c-3.315 0-4.443 2.856-4.443 6.426 0 3.824 1.22 6.334 4.167 6.334.92 0 1.542-.092 1.98-.368V39.719a5.857 5.857 0 0 0-1.704-.23zm-86.325.115c-2.693 0-3.222 3.11-3.222 6.334 0 3.202.598 6.173 3.222 6.173 2.717 0 3.223-2.971 3.223-6.173 0-3.224-.506-6.334-3.223-6.334zm180.89-23.239c4.26 2.464 4.72 6.702 4.72 6.702 1.519 2.81 2.37 2.073 2.324 2.027.173-2.661 1.565-3.107 1.733-3.151l.017-.004c3.085-.46 4.328 6.702 4.328 6.702 1.289 6.979-1.635 6.587-1.635 6.587-.667 2.188-.16 3.432-.16 3.432 1.726 3.363.045 7.324.045 7.324-1.818 5.206-4.466 5.136-5.363 4.906-.875-.23-3.5-2.994-1.934-8.015 1.565-5.021 4.95-5.367 4.95-5.367 1.588-1.404.897-3.201.897-3.201-1.865-1.336-2.808-6.034-2.808-6.034-1.566-2.004-3.085-.553-3.085-.553-1.243 2.096-3.89 3.57-7.965 1.589-4.074-1.98-5.87-8.637-2.993-11.862 2.878-3.224 6.93-1.082 6.93-1.082zm-5.363 16.445c7.297.438 7.32 8.291 7.32 8.291-.783 8.292-7.712 8.292-7.712 8.292-7.09-.276-7.435-7.785-7.435-7.785.161-8.453 7.827-8.798 7.827-8.798zm-24.24 1.105c1.381 0 2.348.323 2.923.691v9.536c0 2.51-1.427 3.938-3.775 3.938-1.289 0-2.394-.276-3.061-.668l.483-1.082c.552.3 1.404.576 2.279.576 1.818 0 2.51-1.106 2.51-2.58v-.691c-.438.253-1.106.415-1.98.415-2.349 0-3.868-1.866-3.868-4.86 0-3.133 1.52-5.275 4.489-5.275zm-48.917 5.62c-2.233 0-3.753 1.82-3.66 5.873l6.998-1.059c0-3.432-1.22-4.814-3.338-4.814zm33.102-5.62c2.694 0 3.868 2.165 3.868 5.114 0 2.902-1.174 5.113-3.845 5.113-2.693 0-3.867-2.211-3.867-5.113 0-2.949 1.197-5.114 3.844-5.114zm-7.02 8.016c.575 0 1.035.46 1.035 1.036 0 .576-.46 1.06-1.036 1.06a1.071 1.071 0 0 1-1.059-1.06c0-.576.484-1.036 1.06-1.036zm17.333-7.993-.368 1.221c-.806-.23-1.727-.161-2.256.184v8.614h-1.612v-9.328c.967-.483 1.911-.76 4.236-.69zm5.479.945c-2.003 0-2.855 1.658-2.855 4.26 0 2.534.83 3.962 2.694 3.962.621 0 1.174-.16 1.542-.391v-7.555h.023c-.368-.207-.852-.276-1.404-.276zm-15.769.069c-1.887 0-2.256 2.096-2.256 4.1 0 2.003.392 3.984 2.256 3.984 1.888 0 2.233-2.004 2.233-3.984 0-1.981-.345-4.1-2.233-4.1zm11.326-26.257c3.863.713 4.064 4.462 4.074 4.928v.047c1.98 3.04 4.006 1.06 4.006 1.083 2.095-3.153 5.513-3.533 6.928-3.547h.188c.29.005.458.023.458.023 5.64.76 7.688 5.205 7.642 7.923-.023 2.718-2.601 7.623-9.23 6.933-6.63-.668-7.09-7.233-7.09-7.233-2.441-2.28-5.02-.138-5.02-.138-3.153 3.524-7.043 3.017-7.043 3.017-4.788-.644-5.318-3.915-4.65-7.024.69-3.133 5.64-6.795 9.737-6.012zm18.646-7.646s2.716.391 5.249 2.003c0 0 1.404 1.175 1.703 2.027l.028.03.08.08c.295.29 1.17 1.071 2.194 1.295 0 0 .3-3.247 5.387.092 0 0 6.745 4.63 5.824 7.808-.097.183-1.633 2.853-7.205-1.45-.046 0-2.233-2.235-3.66-4.653 0 0-1.888-1.36-3.66-.369-1.75.99-4.352 2.626-10.222-.576 0 0-2.417-1.428-2.186-3.984 0 0 .552-3.156 6.468-2.303zM193.62.794c1.22 1.797-2.164 3.754-2.164 3.754-1.68 1.36-8.701 2.833-9.945.461-1.243-2.372 4.996-4.238 4.996-4.238s5.87-1.75 7.113.023z"/>
        </clipPath>
        <linearGradient id="ruuxz6a7cc" x1="0" y1="36.5" x2="232" y2="36.5" gradientUnits="userSpaceOnUse">
            <stop stop-color="#FF6000" offset="0%"/>
            <stop stop-color="#D5492B" offset="100%"/>
            <stop stop-color="#FFF" offset="100%"/>
        </linearGradient>
    </defs>
    <g clip-path="url(#f9js5qklya)" transform="translate(-101 -300)">
        <g clip-path="url(#y44ygzvufb)" transform="translate(101 300)">
            <path fill="url(#ruuxz6a7cc)" d="M0 0h232v73H0V0z"/>
        </g>
    </g>
</svg>
