<?xml version="1.0" encoding="UTF-8" standalone="no"?>
<!-- Created with Inkscape (http://www.inkscape.org/) -->

<svg
   xmlns:dc="http://purl.org/dc/elements/1.1/"
   xmlns:cc="http://creativecommons.org/ns#"
   xmlns:rdf="http://www.w3.org/1999/02/22-rdf-syntax-ns#"
   xmlns:svg="http://www.w3.org/2000/svg"
   xmlns="http://www.w3.org/2000/svg"
   xmlns:sodipodi="http://sodipodi.sourceforge.net/DTD/sodipodi-0.dtd"
   xmlns:inkscape="http://www.inkscape.org/namespaces/inkscape"
   width="158.75009mm"
   height="16.42704mm"
   viewBox="0 0 158.75009 16.42704"
   version="1.1"
   id="svg5141"
   inkscape:version="0.92.1 r15371"
   sodipodi:docname="Houston_Chronicle_Logo_2016.svg">
  <defs
     id="defs5135" />
  <sodipodi:namedview
     id="base"
     pagecolor="#ffffff"
     bordercolor="#666666"
     borderopacity="1.0"
     inkscape:pageopacity="0.0"
     inkscape:pageshadow="2"
     inkscape:zoom="2.0066655"
     inkscape:cx="300.00017"
     inkscape:cy="31.043225"
     inkscape:document-units="mm"
     inkscape:current-layer="svg5141"
     showgrid="false"
     fit-margin-top="0"
     fit-margin-left="0"
     fit-margin-right="0"
     fit-margin-bottom="0"
     inkscape:window-width="1920"
     inkscape:window-height="1001"
     inkscape:window-x="-9"
     inkscape:window-y="-9"
     inkscape:window-maximized="1" />
  <metadata
     id="metadata5138">
    <rdf:RDF>
      <cc:Work
         rdf:about="">
        <dc:format>image/svg+xml</dc:format>
        <dc:type
           rdf:resource="http://purl.org/dc/dcmitype/StillImage" />
        <dc:title></dc:title>
      </cc:Work>
    </rdf:RDF>
  </metadata>
  <path
     inkscape:connector-curvature="0"
     id="path52440"
     style="fill:#000000;fill-opacity:1;fill-rule:nonzero;stroke:none;stroke-width:0.1780857"
     d="m 64.02047,16.14094 h -0.111088 -2.428642 -0.0732 l -0.0292,-0.067 -2.65793,-6.1724703 V 16.03008 16.14094 H 58.6091 56.239669 56.128592 V 16.03008 2.9525895 2.8412796 h 0.111077 2.255232 0.0728 l 0.0292,0.0659 2.838022,6.4142202 V 2.9526096 2.8412997 h 0.11108 2.36342 0.111087 V 2.9526096 16.0301 Z" />
  <path
     inkscape:connector-curvature="0"
     id="path52444"
     style="fill:#000000;fill-opacity:1;fill-rule:nonzero;stroke:none;stroke-width:0.1780857"
     d="m 88.267942,16.14963 h -2.888991 c -1.784641,0 -2.480521,-0.6912 -2.480521,-2.46382 V 6.5151996 l -0.003,-1.6067799 c 0.13557,-1.80691 1.322509,-2.0598 2.565318,-2.0598 h 2.693771 c 1.71519,0 2.44735,0.74129 2.44735,2.47919 v 1.2839901 0.0873 l -0.0842,0.020899 -2.547519,0.6315303 -0.138009,0.0341 V 7.2433792 5.458739 c 0,-0.1874398 -0.10708,-0.2780398 -0.327012,-0.2780398 H 86.04505 c -0.140021,0 -0.37487,0.0463 -0.37487,0.3588398 v 7.870501 c 0,0.15226 0.0383,0.407369 0.293841,0.407369 H 87.5383 c 0.25555,0 0.293841,-0.225049 0.293841,-0.359499 V 11.6412 11.49986 l 0.13757,0.0331 2.547509,0.61529 0.0846,0.0209 v 0.0875 1.41199 c 0,1.71541 -0.719251,2.48097 -2.333821,2.48097 m 70.482091,0 h -0.1113 -6.42689 -0.1113 V 16.0383 2.9603397 2.8490496 h 0.1113 6.42689 0.1113 v 0.1112901 2.0934101 0.1112998 h -0.1113 -3.78343 v 3.1033702 h 3.01877 0.11131 v 0.11108 2.0927302 0.1113 h -0.11131 -3.01877 v 3.23426 h 3.78343 0.1113 v 0.11153 2.10898 z" />
  <path
     inkscape:connector-curvature="0"
     id="path52448"
     style="fill:#000000;fill-opacity:1;fill-rule:nonzero;stroke:none;stroke-width:0.1780857"
     d="m 150.80028,16.14918 h -0.1113 -6.19916 -0.11086 V 16.03788 2.9430296 2.8317297 h 0.11086 2.51524 0.11086 V 2.9430296 13.81738 h 3.57306 0.1113 v 0.11152 2.10898 z m -10.54133,0 h -2.88766 c -1.78464,0 -2.48007,-0.69029 -2.48007,-2.46358 V 5.2792795 c 0,-2.1357 1.23102,-2.4306598 2.5611,-2.4306598 h 2.69443 c 1.71386,0 2.44601,0.7419599 2.44601,2.4794199 v 1.2837602 0.0871 l -0.0844,0.020899 -2.54707,0.63177 -0.13824,0.0345 v -0.14224 -1.7850999 c 0,-0.18743 -0.10707,-0.2782501 -0.32701,-0.2782501 h -1.46008 c -0.14002,0 -0.37487,0.0468 -0.37487,0.35951 v 7.8696102 c 0,0.15271 0.0383,0.40782 0.29384,0.40782 h 1.57383 c 0.256,0 0.29429,-0.22551 0.29429,-0.35952 V 11.64077 11.4994 l 0.13735,0.0332 2.54707,0.61618 0.0853,0.0209 v 0.0873 1.41178 c 0,1.71585 -0.71991,2.48049 -2.33381,2.48049 m -7.17508,0 h -0.1113 -2.51435 -0.11085 V 16.03795 2.9599997 2.8486996 h 0.11085 2.51435 0.1113 V 2.9599997 16.03795 Z m -4.62466,0 h -0.1113 -2.4331 -0.0735 l -0.0292,-0.067 -2.65771,-6.1724708 v 6.1281708 0.11129 h -0.11153 -2.36943 -0.1113 v -0.1113 -13.0781604 -0.11131 h 0.1113 2.25546 0.0726 l 0.0299,0.0661 2.83735,6.4139699 V 2.9597597 2.8484495 h 0.1113 2.36787 0.11131 V 2.9597597 16.03792 Z m -28.720768,0 h -0.1113 -2.53216 -0.1113 v -0.11174 -5.518201 h -2.19447 v 5.502621 0.1113 H 94.677471 92.16268 92.05115 V 16.02192 2.9597896 2.8480397 h 0.11153 2.514791 0.111741 v 0.1117499 5.2588602 h 2.19447 V 2.9597896 2.8480397 h 0.1113 2.53216 0.1113 V 2.9597896 16.03751 Z" />
  <path
     inkscape:connector-curvature="0"
     id="path52452"
     style="fill:#000000;fill-opacity:1;fill-rule:nonzero;stroke:none;stroke-width:0.1780857"
     d="m 114.13288,5.1804397 c -0.20791,0 -0.30987,0.11264 -0.30987,0.3441599 V 13.37817 c 0,0.36486 0.15027,0.43987 0.37599,0.43987 h 1.42691 c 0.15404,0 0.35929,-0.0427 0.35929,-0.40849 V 5.5245996 c 0,-0.28429 -0.17742,-0.3441599 -0.32657,-0.3441599 z m 2.27304,10.9687403 h -2.85627 c -1.81981,0 -2.49653,-0.68986 -2.49653,-2.54484 V 5.4742796 c 0,-1.9137599 0.68496,-2.62587 2.52748,-2.62587 h 2.7768 c 1.70338,0 2.39792,0.76621 2.39792,2.64347 V 13.53913 c 0,1.82981 -0.70277,2.61005 -2.3494,2.61005 M 104.41097,8.6248297 h 1.75503 c 0.17875,0 0.39223,-0.0623 0.39223,-0.3581601 V 5.6214398 c 0,-0.3256902 -0.11575,-0.4412102 -0.44098,-0.4412102 h -1.70628 z m 5.28736,7.5239103 h -0.15739 -2.59515 -0.0797 l -0.0256,-0.0748 -1.74368,-5.06942 h -0.68585 v 5.03336 0.11086 h -0.11087 -2.56309 -0.11131 V 16.03788 2.9597097 2.8486197 h 0.11131 5.15825 c 1.69426,0 2.45002,0.75977 2.45002,2.46361 v 3.0180999 c 0,1.3349902 -0.42897,1.9858704 -1.57406,2.3603004 l 1.87502,5.30985 z m -66.85048,-0.008 H 42.73677 40.22131 40.11023 V 16.029889 5.1720188 H 37.60879 37.49771 V 5.0611589 2.9523988 2.8410888 h 0.11108 7.772551 0.11108 v 0.11131 2.1087601 0.1108599 H 45.381341 42.84785 V 16.029889 Z m -8.88737,0 h -2.888541 c -1.903288,0 -2.577568,-0.63197 -2.577568,-2.41484 v -2.25545 -0.1398 l 0.135789,0.0314 2.547739,0.58367 0.0866,0.0196 v 0.0888 1.39576 c 0,0.19521 0.14804,0.34258 0.34371,0.34258 h 1.557581 c 0.0717,0 0.262228,0 0.262228,-0.32702 V 11.9092 c 0,-0.21035 -0.0857,-0.31989 -0.340368,-0.4352 L 30.1341,10.14482 C 29.04644,9.6530696 28.494381,9.1511097 28.494381,7.7704896 v -2.30421 c 0,-2.2191699 0.91158,-2.6252 2.707119,-2.6252 h 2.35385 c 1.938912,0 2.625651,0.6700501 2.625651,2.55998 v 2.3861202 0.1469199 l -0.141132,-0.0398 -2.547299,-0.7141202 -0.0808,-0.0225 v -0.0846 -1.4772201 c 0,-0.3728598 -0.18143,-0.4238299 -0.358852,-0.4238299 H 31.62357 c -0.247991,0 -0.359071,0.1208701 -0.359071,0.3913301 v 1.5911899 c 0,0.2422001 0.0895,0.33035 0.24375,0.4004799 L 34.31555,8.8376895 C 35.57974,9.4146896 36.181,9.9440494 36.181,11.38921 v 2.04509 c 0,1.89706 -0.664041,2.70646 -2.22051,2.70646 m -10.011971,0 h -2.06045 c -1.96407,0 -2.91905,-0.95965 -2.91905,-2.93418 V 2.9524096 2.8410997 h 0.11108 2.53304 0.11131 V 2.9524096 13.41738 c 0,0.28205 0.0804,0.35996 0.37376,0.35996 h 1.46164 c 0.19634,0 0.32701,-0.0615 0.32701,-0.35996 V 2.9524096 2.8410997 h 0.11107 2.563551 0.11108 V 2.9524096 13.20658 c 0,1.89193 -0.967011,2.93418 -2.724041,2.93418 m -16.26234,0 H 7.5750902 5.0445001 4.93342 V 16.0299 10.50968 H 2.7376199 v 5.52022 0.11086 H 2.62654 0.11108 0 V 16.0299 2.9524096 2.8410997 H 0.11108 2.62654 2.7376199 V 2.9524096 8.2114897 H 4.93342 V 2.9524096 2.8410997 H 5.0445001 7.5750902 7.68618 V 2.9524096 16.0299 Z" />
  <path
     inkscape:connector-curvature="0"
     id="path52456"
     style="fill:#000000;fill-opacity:1;fill-rule:nonzero;stroke:none;stroke-width:0.1780857"
     d="m 49.63537,5.1721897 c -0.208579,0 -0.310099,0.1122 -0.310099,0.3428201 V 13.36925 c 0,0.36554 0.15004,0.44055 0.375319,0.44055 h 1.427131 c 0.15471,0 0.35996,-0.0421 0.35996,-0.40805 V 5.5150098 c 0,-0.2831502 -0.177641,-0.3428201 -0.326781,-0.3428201 z M 51.908181,16.14094 H 49.05035 c -1.81959,0 -2.49587,-0.68942 -2.49587,-2.5444 V 5.4666998 c 0,-1.9137501 0.685411,-2.6254202 2.53016,-2.6254202 h 2.774791 c 1.703621,0 2.398149,0.76576 2.398149,2.6423501 V 13.53131 c 0,1.82983 -0.702328,2.60963 -2.349399,2.60963 M 12.74781,5.1721897 c -0.20881,0 -0.31076,0.1122 -0.31076,0.3428201 V 13.36925 c 0,0.36554 0.14981,0.44055 0.37531,0.44055 h 1.42847 c 0.15471,0 0.35996,-0.0421 0.35996,-0.40805 V 5.5150098 c 0,-0.2831502 -0.17853,-0.3428201 -0.32835,-0.3428201 z M 15.01974,16.14094 h -2.85628 c -1.82003,0 -2.49631,-0.68942 -2.49631,-2.5444 V 5.4666998 c 0,-1.9137501 0.6854,-2.6254202 2.52904,-2.6254202 h 2.77435 c 1.70473,0 2.3997,0.76576 2.3997,2.6423501 V 13.53131 c 0,1.82983 -0.70277,2.60963 -2.3505,2.60963 m 55.24329,-5.91422 -0.0459,-0.0329 -5.12442,-3.7231003 -0.277368,-0.2017001 h 0.342818 6.333842 0.0568 l 0.0336,0.0459 1.957609,2.69954 0.0899,0.12398 -0.145802,0.0472 -3.167038,1.0237604 -0.0541,0.0175 z" />
  <path
     inkscape:connector-curvature="0"
     id="path52460"
     style="fill:#000000;fill-opacity:1;fill-rule:nonzero;stroke:none;stroke-width:0.1780857"
     d="M 65.15821,6.3800597 70.28262,10.10339 73.449662,9.0800498 71.492271,6.3800597 Z" />
  <path
     inkscape:connector-curvature="0"
     id="path52464"
     style="fill:#000000;fill-opacity:1;fill-rule:nonzero;stroke:none;stroke-width:0.1780857"
     d="m 73.449662,9.2697397 -0.0902,-0.1242201 -1.952268,-2.69554 -0.0329,-0.0463 0.01741,-0.0538 1.95626,-6.02398011 L 73.453921,-3.9990232e-7 73.559662,0.32589959 l 1.958049,6.02353011 0.01741,0.0543 -0.0334,0.0456 -1.962279,2.6962201 z" />
  <path
     inkscape:connector-curvature="0"
     id="path52468"
     style="fill:#000000;fill-opacity:1;fill-rule:nonzero;stroke:none;stroke-width:0.1780857"
     d="m 73.453662,0.3598596 -1.956271,6.02443 1.952271,2.6957602 1.962269,-2.69666 z" />
  <path
     inkscape:connector-curvature="0"
     id="path52472"
     style="fill:#000000;fill-opacity:1;fill-rule:nonzero;stroke:none;stroke-width:0.1780857"
     d="m 76.64006,10.23606 -0.0541,-0.0173 -3.170809,-1.0326605 -0.145592,-0.0479 0.0902,-0.1235599 1.96005,-2.6901902 0.0329,-0.0459 h 0.0568 l 6.334291,-0.00201 h 0.342591 l -0.277141,0.2012399 -5.123309,3.7246607 -0.0459,0.0334 z" />
  <path
     inkscape:connector-curvature="0"
     id="path52476"
     style="fill:#000000;fill-opacity:1;fill-rule:nonzero;stroke:none;stroke-width:0.1780857"
     d="m 81.74377,6.3878596 -6.334279,0.00201 -1.96006,2.6899801 3.17082,1.0326703 5.123519,-3.7246703 z" />
  <path
     inkscape:connector-curvature="0"
     id="path52480"
     style="fill:#000000;fill-opacity:1;fill-rule:nonzero;stroke:none;stroke-width:0.1780857"
     d="m 78.78622,16.42698 -0.277368,-0.20102 -5.126421,-3.72155 -0.0459,-0.0336 v -0.0564 l 0.0011,-3.3344203 V 8.9261496 l 0.146021,0.0477 3.164589,1.0328904 0.0539,0.0175 0.0173,0.0536 1.960282,6.023301 0.10618,0.3259 z" />
  <path
     inkscape:connector-curvature="0"
     id="path52484"
     style="fill:#000000;fill-opacity:1;fill-rule:nonzero;stroke:none;stroke-width:0.1780857"
     d="m 73.449662,9.0800697 -0.0021,3.3342103 5.125979,3.72155 -1.96006,-6.02309 -3.164361,-1.0326703 z" />
  <path
     inkscape:connector-curvature="0"
     id="path52488"
     style="fill:#000000;fill-opacity:1;fill-rule:nonzero;stroke:none;stroke-width:0.1780857"
     d="m 68.112431,16.42611 0.105741,-0.32613 1.954038,-6.0253 0.01759,-0.0539 0.0539,-0.0173 3.171481,-1.0295604 0.146029,-0.0474 v 0.15338 l -0.004,3.3284004 v 0.0565 l -0.0461,0.0336 -5.122191,3.72623 -0.276701,0.20145 z" />
  <path
     inkscape:connector-curvature="0"
     id="path52492"
     style="fill:#000000;fill-opacity:1;fill-rule:nonzero;stroke:none;stroke-width:0.1780857"
     d="M 68.324132,16.13449 73.44609,12.4085 73.45009,9.0800697 70.278381,10.10896 Z" />
  <path
     inkscape:connector-curvature="0"
     id="path52496"
     style="fill:#d99c3b;fill-opacity:1;fill-rule:nonzero;stroke:none;stroke-width:0.1780857"
     d="M 65.15821,6.3800597 73.449662,9.0800498 70.28262,10.10339 Z" />
  <path
     inkscape:connector-curvature="0"
     id="path52500"
     style="fill:#edbc54;fill-opacity:1;fill-rule:nonzero;stroke:none;stroke-width:0.1780857"
     d="M 71.492271,6.3800597 73.449662,9.0800498 65.15821,6.3800597 Z" />
  <path
     inkscape:connector-curvature="0"
     id="path52504"
     style="fill:#fcf1bd;fill-opacity:1;fill-rule:nonzero;stroke:none;stroke-width:0.1780857"
     d="m 73.453662,0.3598596 -0.004,8.7201902 -1.952271,-2.6957602 z" />
  <path
     inkscape:connector-curvature="0"
     id="path52508"
     style="fill:#e6a92c;fill-opacity:1;fill-rule:nonzero;stroke:none;stroke-width:0.1780857"
     d="m 75.411931,6.3836197 -1.962269,2.6964301 0.004,-8.71996019 z" />
  <path
     inkscape:connector-curvature="0"
     id="path52512"
     style="fill:#f4dc9a;fill-opacity:1;fill-rule:nonzero;stroke:none;stroke-width:0.1780857"
     d="m 81.74377,6.3878596 -8.294339,2.692 1.96006,-2.6899799 6.334279,-0.00201 z" />
  <path
     inkscape:connector-curvature="0"
     id="path52516"
     style="fill:#e6a92c;fill-opacity:1;fill-rule:nonzero;stroke:none;stroke-width:0.1780857"
     d="M 76.620471,10.11253 73.449662,9.0798596 81.744,6.3878596 Z" />
  <path
     inkscape:connector-curvature="0"
     id="path52520"
     style="fill:#edbc54;fill-opacity:1;fill-rule:nonzero;stroke:none;stroke-width:0.1780857"
     d="m 78.574072,16.1356 -5.12441,-7.0557603 3.16435,1.0326703 z" />
  <path
     inkscape:connector-curvature="0"
     id="path52524"
     style="fill:#e8ac24;fill-opacity:1;fill-rule:nonzero;stroke:none;stroke-width:0.1780857"
     d="M 73.4481,12.4143 73.4502,9.0800898 78.574621,16.13585 73.448639,12.4143 Z" />
  <path
     inkscape:connector-curvature="0"
     id="path52528"
     style="fill:#e49d2d;fill-opacity:1;fill-rule:nonzero;stroke:none;stroke-width:0.1780857"
     d="m 68.324132,16.13449 5.12553,-7.0544203 -0.004,3.3284303 z" />
  <path
     inkscape:connector-curvature="0"
     id="path52532"
     style="fill:#f3d78d;fill-opacity:1;fill-rule:nonzero;stroke:none;stroke-width:0.1780857"
     d="M 70.27795,10.10918 73.449662,9.0800498 68.324132,16.13447 Z" />
</svg>
